# xmcd
#
# Track frame offsets:
#	150
#	9182
#	27170
#	45431
#	64156
#	86907
#	108100
#	126958
#	148549
#	176603
#	191683
#	195528
#	215401
#	243635
#
# Disc length: 3483 seconds
#
# Revision: 9
# Processed by: cddbd v1.5.2PL0 Copyright (c) Steve Scherf et al.
# Submitted via: Jack! The Knife 20 Magnifico
#
DISCID=be0d990e
DTITLE=Grave Digger - The Clans Will Rise Again
DYEAR=2010
DGENRE=Metal
TTITLE0=Days Of Revenge (Intro)
TTITLE1=Paid In Blood
TTITLE2=Hammer Of The Scots
TTITLE3=Highland Farewell
TTITLE4=The Clans Will Rise Again
TTITLE5=Rebels
TTITLE6=Valley Of Tears
TTITLE7=Execution
TTITLE8=Whom The Gods Love Die Young
TTITLE9=Spider
TTITLE10=The Piper McLeod
TTITLE11=Coming Home
TTITLE12=When Rain Turns To Blood
TTITLE13=Watch Me Die
EXTD=Chris Boltendahl
EXTT0=Boltendahl, Ritt, Becker
EXTT1=Boltendahl, Ritt, Becker
EXTT2=Boltendahl, Ritt, Becker
EXTT3=Boltendahl, Ritt, Becker
EXTT4=Boltendahl, Ritt, Becker
EXTT5=Boltendahl, Ritt, Becker
EXTT6=Boltendahl, Ritt, Becker
EXTT7=Boltendahl, Ritt, Becker
EXTT8=Boltendahl, Ritt, Becker
EXTT9=Boltendahl, Ritt, Becker
EXTT10=Boltendahl, Ritt, Becker
EXTT11=Boltendahl, Ritt, Becker
EXTT12=Boltendahl, Ritt, Becker
EXTT13=Boltendahl, Ritt, Becker
PLAYORDER=
